<?xml version="1.0" encoding="UTF-8"?>
<!-- Created with Inkscape by VulcanSphere (http://www.inkscape.org/ and https://en.wikipedia.org/wiki/User:VulcanSphere) -->
<svg id="svg62" width="1365.5" height="650.25" version="1.1" viewBox="0 0 1365.5 650.25" xmlns="http://www.w3.org/2000/svg">
<title>Switch (technology company) logo</title>
<desc>American data centre company</desc>
 <g id="g68" transform="translate(12.402 668.88)" stroke-width="1.3333">
  <path id="path369" d="m424.34-409.94c-66.34-19.347-110.6-54.295-120.15-94.863-10.873-46.191 29.154-93.086 102.69-120.31 19.213-7.1122 53.282-15.521 74.801-18.463l17.333-2.3692 0.38716-11.734c0.37504-11.367 0.47932-11.71 3.3333-10.969 1.6204 0.42078 36.546 14.231 77.613 30.689 45.452 18.215 73.832 30.253 72.533 30.766-1.1738 0.46301-36.274 13.056-78 27.984l-75.866 27.143-0.39175-9.2088c-0.38892-9.1423-0.41917-9.2088-4.1892-9.2088-6.9195 0-31.209 5.4235-45.419 10.142-63.924 21.224-94.281 61.789-75.613 101.04 9.6037 20.191 31.157 37.511 63.294 50.861 10.795 4.4845 6.3007 3.9386-12.348-1.5z" fill="#090909"/>
  <path id="path367" d="m553.95-367.77c-41.646-16.709-75.983-30.643-76.304-30.964-0.41335-0.41335 129.66-47.364 153.69-55.476 1.2298-0.41511 1.6667 1.9214 1.6667 8.9134 0 7.3867 0.42604 9.476 1.9323 9.476 4.0624 0 30.664-5.5925 41.399-8.7036 15.38-4.4568 35.198-13.385 48.086-21.662 11.89-7.6367 26.253-21.72 31.582-30.968 13.136-22.796 8.9078-48.755-11.357-69.731-9.9286-10.277-29.169-23.043-43.89-29.12-5.8636-2.4209-10.109-4.5856-9.4349-4.8104 2.0907-0.69689 33.075 8.6824 45.354 13.729 49.529 20.357 82.719 51.262 90.482 84.254 9.6954 41.205-19.158 82.295-77.487 110.35-27.607 13.277-62.777 23.684-97.114 28.736-9.6539 1.4204-18.302 2.5852-19.219 2.5886-1.2094 4e-3 -1.6667 3.2983-1.6667 12.006 0 6.6-0.45 11.947-1 11.882-0.55-0.0649-35.074-13.789-76.72-30.498z" fill="#d31820"/>
  <path id="path365" d="m1127.7-209.84v-187.36l67.333 0.71245 0.3465 62.333c0.1906 34.283 0.6668 62.333 1.0582 62.333s2.3355-1.544 4.3202-3.4312c9.4192-8.9564 25.454-17.544 39.555-21.184 10.013-2.5847 33.023-2.6473 44.938-0.12213 4.8863 1.0356 13.286 3.961 18.667 6.5007 22.764 10.746 37.059 29.025 45.437 58.104 2.8676 9.9529 2.9273 11.904 3.3622 109.8l0.4427 99.667h-68.126v-88.526c0-86.083-0.077-88.776-2.7919-97.565-3.6622-11.857-14.087-22.86-25.221-26.621-8.3408-2.8174-23.087-3.2211-31.399-0.85959-7.6367 2.1696-16.94 8.68-21.211 14.843-8.3125 11.995-8.0084 8.0998-8.4123 107.73l-0.369 91h-67.929z" fill="#090909"/>
  <path id="path363" d="m818.34-24.585c-13.724-3.6044-25.701-10.526-34.514-19.948-8.9403-9.5572-12.896-16.428-17.628-30.618-3.1022-9.3025-3.1139-9.6009-3.5605-90.333l-0.44808-81h-27.849v-52h28v-34.406l4.3333-1.5749c6.1281-2.2272 62.804-21.353 63.276-21.353 0.21462 0 0.39022 12.9 0.39022 28.667v28.667h48v52h-48l8e-3 73c8e-3 76.161 0.31981 80.842 5.787 86.793 5.4267 5.9075 9.0996 6.8733 26.139 6.8733 15.093 0 16.066 0.15908 16.066 2.6251 0 1.4438-1.8 14.161-4 28.261-2.2 14.1-4 25.818-4 26.042 0 0.22309-10.05 0.36612-22.333 0.31786-14.934-0.0587-24.763-0.72582-29.667-2.0137z" fill="#090909"/>
  <path id="path361" d="m631.67-159.15v-136.67h68v273.33h-68z" fill="#090909"/>
  <path id="path359" d="m288.01-80.164c-9.7151-31.709-28.181-91.852-41.035-133.65-12.854-41.8-23.72-77.35-24.147-79l-0.77664-3h71.833l16.386 63c25.641 98.585 27.357 104.99 28.148 104.99 0.40938 3e-3 13.198-37.807 28.419-84.023l27.675-84.029 49.608 0.72488 56.525 169.33 1.5864-6c0.87252-3.3 2.419-9 3.4366-12.667 1.727-6.223 22.495-85.799 34.052-130.47 2.8181-10.894 5.3705-20.054 5.672-20.355s16.416-0.38816 35.81-0.19264l35.262 0.35549-83.01 272h-56.71l-28.202-84.977c-15.511-46.738-28.505-84.988-28.876-85-0.37096-0.0124-13.469 38.377-29.107 85.311l-28.433 85.333-56.452-0.0283z" fill="#090909"/>
  <path id="path357" d="m1001-19.184c-1.1-0.21552-6.5-1.1176-12-2.0046-37.029-5.9717-67.266-29.152-82.88-63.539-14.661-32.287-17.947-85.078-7.7968-125.27 11.064-43.808 36.604-71.288 78.076-84.004 11.297-3.4641 13.357-3.6611 38.601-3.6905 25.32-0.0295 27.26 0.15248 38.41 3.6041 14.02 4.3398 22.818 8.609 33.59 16.299 8.3044 5.9282 17.577 14.81 16.576 15.876-0.3165 0.33695-10.394 10.535-22.394 22.662l-21.818 22.049-8.8327-7.3315c-11.991-9.9529-20.269-12.976-35.531-12.976-16.358 0-25.349 3.4552-35.323 13.574-14.231 14.437-18.918 29.995-19.117 63.45-0.21345 35.886 5.1452 53.625 20.491 67.833 6.5152 6.032 9.8458 7.9997 17.449 10.309 19.093 5.7995 38.707 1.2468 53.934-12.519l6.7671-6.1176 22.233 22.262c12.228 12.244 22.233 22.693 22.233 23.22 0 1.411-11.482 11.768-17.833 16.086-14.978 10.184-30.39 16.175-48.834 18.983-11.162 1.6994-30.298 2.3602-36 1.243z" fill="#090909"/>
  <path id="path353" d="m79.672-19.282c-35.721-3.1239-60.994-12.572-83.322-31.15l-8.752-7.282 44.654-44.712 3.3765 3.1085c17.214 15.848 40.456 22.914 71.843 21.841 20.976-0.71647 29.299-2.934 37.563-10.008 6.9354-5.9365 9.3038-10.676 9.3038-18.62 0-11.32-6.9769-19.898-18.768-23.073-2.7673-0.74515-17.527-2.5511-32.799-4.0131-32.514-3.1128-40.037-4.3429-52.646-8.6088-33.161-11.219-49.21-36.299-47.366-74.018 1.1119-22.74 7.7802-37.936 23.415-53.359 11.819-11.659 25.149-19.227 43.562-24.733 10.299-3.0796 15.082-3.6603 34.912-4.2391 42.609-1.2436 72.908 5.7065 96.835 22.212 11.959 8.25 12.643 6.2469-10.274 30.099l-20.372 21.203-4.6518-3.5481c-19.114-14.579-64.557-20.144-83.902-10.275-5.8289 2.9737-12.914 10.719-14.09 15.403-0.46674 1.8597-0.56023 6.3826-0.20774 10.051 0.79486 8.2722 6.5436 14.833 15.584 17.784 3.3554 1.0955 18.401 3.2252 33.434 4.7325 40.716 4.0824 49.959 6.0873 65.498 14.207 17.199 8.9873 28.859 23.194 34.848 42.461 2.341 7.5308 2.8935 12.552 2.861 26-0.0353 14.594-0.48903 17.964-3.6492 27.104-10.642 30.778-35.313 50.026-74.891 58.43-11.756 2.4962-47.815 4.2416-62 3.001z" fill="#090909"/>
 </g>
</svg>